<svg xmlns="http://www.w3.org/2000/svg" viewBox="0 0 197 41.24"><defs><style>.cls-1{fill:#fff;}.cls-1,.cls-2{fill-rule:evenodd;}.cls-2{fill:#c2b202;}</style></defs><g id="Capa_2" data-name="Capa 2"><g id="Capa_1-2" data-name="Capa 1"><path class="cls-1" d="M29.39,29.12,29,40.65H0V.74c4.69,0,8.8,0,14-.07V2.88q-3.83,0-5,2-.72,1.32-.72,5.56V28q0,5.45.9,7.17,1.38,2.68,6.27,2.69,5.09,0,7.62-1.94c1.7-1.3,2.94-3.58,3.74-6.84Zm32.82-5.44q0-15.87-10.47-15.87A8.6,8.6,0,0,0,43.55,13a21.62,21.62,0,0,0-2,10.08,23.44,23.44,0,0,0,2,10.4q2.6,5.4,8.19,5.4Q62.21,38.83,62.21,23.68Zm9-.33a16.44,16.44,0,0,1-5.79,13.07,20.14,20.14,0,0,1-13.72,4.82,19.58,19.58,0,0,1-13.53-4.82,16.75,16.75,0,0,1-5.65-13.07,16.71,16.71,0,0,1,5.72-13.13A19.9,19.9,0,0,1,51.94,5.4a19.8,19.8,0,0,1,13.59,4.82A16.75,16.75,0,0,1,71.25,23.35Zm36.9-7.54h-2.22q-.84-7.29-8.78-7.28a2.4,2.4,0,0,0-1.59.35,2.26,2.26,0,0,0-.36,1.53V32.85c0,2.25.29,3.77.85,4.55s2.15,1.36,4.36,1.36v1.89q-9.24-.13-18.41,0V38.76c2.26,0,3.73-.47,4.42-1.43.57-.78.85-2.27.85-4.48V12.36c0-1.86-.17-3-.52-3.31s-1.43-.52-3.25-.52q-5.93,0-7.22,7.28H74l.33-9.95h33.49Zm34.46,24.84q-21.65-.13-30.43,0V38.76q3.31.08,4.29-1.82c.44-.73.65-2.34.65-4.81V14.38c0-2.43-.21-4-.65-4.81-.65-1.22-2.08-1.82-4.29-1.82V5.86q8.85.13,28,0l.39,9.23h-2.21q-1.17-6.83-8.84-6.82a12.46,12.46,0,0,0-3.71.26c-.47.3-.71,1.43-.71,3.38v9.62a9.46,9.46,0,0,0,5.07-1q2-1.23,2.08-4.62h2.08q-.19,7.43,0,13.79h-2.08c-.48-2.3-1.19-3.81-2.15-4.55s-2.62-1.11-5-1.11v6.18q0,4.49.78,5.85c.78,1.48,2.51,2.21,5.2,2.21,3,0,5.1-.56,6.47-1.69s2.37-3.14,3-6h2.08Q142.43,36.56,142.61,40.65Z"/><path class="cls-2" d="M149,40.65V34l7-6.61a60.86,60.86,0,0,0,7.13-8q3.18-4.29,3.18-7.61a4.62,4.62,0,0,0-1.92-4,7.76,7.76,0,0,0-4.61-1.37,12.85,12.85,0,0,0-4.61.83,24.69,24.69,0,0,0-4.61,2.37l-.63-6.64A25.7,25.7,0,0,1,161.79,0Q167.7,0,171,3t3.32,8.73a15.49,15.49,0,0,1-2.14,7.73,36.58,36.58,0,0,1-5,6.84q-2.84,3.06-7.93,8.1h16.31v6.3Z"/><polygon class="cls-2" points="189.9 0.69 197 0.69 197 40.65 188.98 40.65 188.98 9.79 182.23 15.29 178.22 10.08 189.9 0.69"/></g></g></svg>